{
    "asset" : {
        "generator" : "Khronos glTF Blender I/O v3.4.50",
        "version" : "2.0"
    },
    "scene" : 0,
    "scenes" : [
        {
            "name" : "Scene",
            "nodes" : [
                10
            ]
        }
    ],
    "nodes" : [
        {
            "mesh" : 0,
            "name" : "Object_10"
        },
        {
            "mesh" : 1,
            "name" : "Object_3"
        },
        {
            "mesh" : 2,
            "name" : "Object_4"
        },
        {
            "mesh" : 3,
            "name" : "Object_5"
        },
        {
            "mesh" : 4,
            "name" : "Object_6"
        },
        {
            "mesh" : 5,
            "name" : "Object_7"
        },
        {
            "mesh" : 6,
            "name" : "Object_8"
        },
        {
            "mesh" : 7,
            "name" : "Object_9"
        },
        {
            "children" : [
                0,
                1,
                2,
                3,
                4,
                5,
                6,
                7
            ],
            "name" : "Object_2"
        },
        {
            "children" : [
                8
            ],
            "name" : "car.obj.cleaner.materialmerger.gles",
            "translation" : [
                -1.9832350015640259,
                -0.9713429808616638,
                -0.006544000003486872
            ]
        },
        {
            "children" : [
                9
            ],
            "name" : "Sketchfab_model",
            "rotation" : [
                -0.70710688829422,
                0,
                0,
                0.7071066498756409
            ]
        }
    ],
    "materials" : [
        {
            "doubleSided" : true,
            "name" : "pasted__lambert41SG",
            "pbrMetallicRoughness" : {
                "baseColorTexture" : {
                    "index" : 0
                },
                "metallicFactor" : 0,
                "roughnessFactor" : 0.6000000238418579
            }
        },
        {
            "doubleSided" : true,
            "name" : "lambert39SG",
            "pbrMetallicRoughness" : {
                "baseColorTexture" : {
                    "index" : 1
                },
                "metallicFactor" : 0,
                "roughnessFactor" : 0.6000000238418579
            }
        },
        {
            "doubleSided" : true,
            "name" : "lambert42SG",
            "pbrMetallicRoughness" : {
                "baseColorTexture" : {
                    "index" : 2
                },
                "metallicFactor" : 0,
                "roughnessFactor" : 0.6000000238418579
            }
        },
        {
            "doubleSided" : true,
            "name" : "lambert44SG",
            "pbrMetallicRoughness" : {
                "baseColorTexture" : {
                    "index" : 3
                },
                "metallicFactor" : 0,
                "roughnessFactor" : 0.6000000238418579
            }
        },
        {
            "doubleSided" : true,
            "name" : "lambert45SG",
            "pbrMetallicRoughness" : {
                "baseColorTexture" : {
                    "index" : 4
                },
                "metallicFactor" : 0,
                "roughnessFactor" : 0.6000000238418579
            }
        },
        {
            "doubleSided" : true,
            "name" : "lambert46SG",
            "pbrMetallicRoughness" : {
                "baseColorTexture" : {
                    "index" : 5
                },
                "metallicFactor" : 0,
                "roughnessFactor" : 0.6000000238418579
            }
        },
        {
            "doubleSided" : true,
            "name" : "lambert47SG",
            "pbrMetallicRoughness" : {
                "baseColorTexture" : {
                    "index" : 6
                },
                "metallicFactor" : 0,
                "roughnessFactor" : 0.6000000238418579
            }
        },
        {
            "doubleSided" : true,
            "name" : "pasted__lambert40SG",
            "pbrMetallicRoughness" : {
                "baseColorTexture" : {
                    "index" : 7
                },
                "metallicFactor" : 0,
                "roughnessFactor" : 0.6000000238418579
            }
        }
    ],
    "meshes" : [
        {
            "name" : "Object_7",
            "primitives" : [
                {
                    "attributes" : {
                        "POSITION" : 0,
                        "TEXCOORD_0" : 1,
                        "NORMAL" : 2
                    },
                    "indices" : 3,
                    "material" : 0
                }
            ]
        },
        {
            "name" : "Object_0",
            "primitives" : [
                {
                    "attributes" : {
                        "POSITION" : 4,
                        "TEXCOORD_0" : 5,
                        "NORMAL" : 6
                    },
                    "indices" : 7,
                    "material" : 1
                }
            ]
        },
        {
            "name" : "Object_1",
            "primitives" : [
                {
                    "attributes" : {
                        "POSITION" : 8,
                        "TEXCOORD_0" : 9,
                        "NORMAL" : 10
                    },
                    "indices" : 11,
                    "material" : 2
                }
            ]
        },
        {
            "name" : "Object_2",
            "primitives" : [
                {
                    "attributes" : {
                        "POSITION" : 12,
                        "TEXCOORD_0" : 13,
                        "NORMAL" : 14
                    },
                    "indices" : 15,
                    "material" : 3
                }
            ]
        },
        {
            "name" : "Object_3",
            "primitives" : [
                {
                    "attributes" : {
                        "POSITION" : 16,
                        "TEXCOORD_0" : 17,
                        "NORMAL" : 18
                    },
                    "indices" : 19,
                    "material" : 4
                }
            ]
        },
        {
            "name" : "Object_4",
            "primitives" : [
                {
                    "attributes" : {
                        "POSITION" : 20,
                        "TEXCOORD_0" : 21,
                        "NORMAL" : 22
                    },
                    "indices" : 23,
                    "material" : 5
                }
            ]
        },
        {
            "name" : "Object_5",
            "primitives" : [
                {
                    "attributes" : {
                        "POSITION" : 24,
                        "TEXCOORD_0" : 25,
                        "NORMAL" : 26
                    },
                    "indices" : 27,
                    "material" : 6
                }
            ]
        },
        {
            "name" : "Object_6",
            "primitives" : [
                {
                    "attributes" : {
                        "POSITION" : 28,
                        "TEXCOORD_0" : 29,
                        "NORMAL" : 30
                    },
                    "indices" : 31,
                    "material" : 7
                }
            ]
        }
    ],
    "textures" : [
        {
            "sampler" : 0,
            "source" : 0
        },
        {
            "sampler" : 0,
            "source" : 1
        },
        {
            "sampler" : 0,
            "source" : 2
        },
        {
            "sampler" : 0,
            "source" : 3
        },
        {
            "sampler" : 0,
            "source" : 4
        },
        {
            "sampler" : 0,
            "source" : 5
        },
        {
            "sampler" : 0,
            "source" : 6
        },
        {
            "sampler" : 0,
            "source" : 7
        }
    ],
    "images" : [
        {
            "bufferView" : 4,
            "mimeType" : "image/jpeg",
            "name" : "pasted__lambert41SG_baseColor"
        },
        {
            "bufferView" : 9,
            "mimeType" : "image/jpeg",
            "name" : "lambert39SG_baseColor"
        },
        {
            "bufferView" : 14,
            "mimeType" : "image/jpeg",
            "name" : "lambert42SG_baseColor"
        },
        {
            "bufferView" : 19,
            "mimeType" : "image/jpeg",
            "name" : "lambert44SG_baseColor"
        },
        {
            "bufferView" : 24,
            "mimeType" : "image/jpeg",
            "name" : "lambert45SG_baseColor"
        },
        {
            "bufferView" : 29,
            "mimeType" : "image/jpeg",
            "name" : "lambert46SG_baseColor"
        },
        {
            "bufferView" : 34,
            "mimeType" : "image/jpeg",
            "name" : "lambert47SG_baseColor"
        },
        {
            "bufferView" : 39,
            "mimeType" : "image/jpeg",
            "name" : "pasted__lambert40SG_baseColor"
        }
    ],
    "accessors" : [
        {
            "bufferView" : 0,
            "componentType" : 5126,
            "count" : 160,
            "max" : [
                0.18093597888946533,
                1.6611440181732178,
                0.7882559895515442
            ],
            "min" : [
                0.024360060691833496,
                0.28154200315475464,
                0.525081992149353
            ],
            "type" : "VEC3"
        },
        {
            "bufferView" : 1,
            "componentType" : 5126,
            "count" : 160,
            "type" : "VEC2"
        },
        {
            "bufferView" : 2,
            "componentType" : 5126,
            "count" : 160,
            "type" : "VEC3"
        },
        {
            "bufferView" : 3,
            "componentType" : 5123,
            "count" : 246,
            "type" : "SCALAR"
        },
        {
            "bufferView" : 5,
            "componentType" : 5126,
            "count" : 1637,
            "max" : [
                3.9230880737304688,
                1.781153917312622,
                1.4427540302276611
            ],
            "min" : [
                0,
                0.1615319848060608,
                0.2612760066986084
            ],
            "type" : "VEC3"
        },
        {
            "bufferView" : 6,
            "componentType" : 5126,
            "count" : 1637,
            "type" : "VEC2"
        },
        {
            "bufferView" : 7,
            "componentType" : 5126,
            "count" : 1637,
            "type" : "VEC3"
        },
        {
            "bufferView" : 8,
            "componentType" : 5123,
            "count" : 4350,
            "type" : "SCALAR"
        },
        {
            "bufferView" : 10,
            "componentType" : 5126,
            "count" : 264,
            "max" : [
                3.2167129516601562,
                1.9405360221862793,
                1.3582680225372314
            ],
            "min" : [
                0.9521150588989258,
                0.0021499991416931152,
                0.8994629979133606
            ],
            "type" : "VEC3"
        },
        {
            "bufferView" : 11,
            "componentType" : 5126,
            "count" : 264,
            "type" : "VEC2"
        },
        {
            "bufferView" : 12,
            "componentType" : 5126,
            "count" : 264,
            "type" : "VEC3"
        },
        {
            "bufferView" : 13,
            "componentType" : 5123,
            "count" : 720,
            "type" : "SCALAR"
        },
        {
            "bufferView" : 15,
            "componentType" : 5126,
            "count" : 232,
            "max" : [
                3.937666893005371,
                1.6213829517364502,
                0.7186970114707947
            ],
            "min" : [
                3.817695140838623,
                0.32130300998687744,
                0.5377770066261292
            ],
            "type" : "VEC3"
        },
        {
            "bufferView" : 16,
            "componentType" : 5126,
            "count" : 232,
            "type" : "VEC2"
        },
        {
            "bufferView" : 17,
            "componentType" : 5126,
            "count" : 232,
            "type" : "VEC3"
        },
        {
            "bufferView" : 18,
            "componentType" : 5123,
            "count" : 252,
            "type" : "SCALAR"
        },
        {
            "bufferView" : 20,
            "componentType" : 5126,
            "count" : 1411,
            "max" : [
                3.935580015182495,
                1.9426859617233276,
                1.030903935432434
            ],
            "min" : [
                0.024006009101867676,
                0,
                0.29276400804519653
            ],
            "type" : "VEC3"
        },
        {
            "bufferView" : 21,
            "componentType" : 5126,
            "count" : 1411,
            "type" : "VEC2"
        },
        {
            "bufferView" : 22,
            "componentType" : 5126,
            "count" : 1411,
            "type" : "VEC3"
        },
        {
            "bufferView" : 23,
            "componentType" : 5123,
            "count" : 2388,
            "type" : "SCALAR"
        },
        {
            "bufferView" : 25,
            "componentType" : 5126,
            "count" : 72,
            "max" : [
                3.913501024246216,
                1.1542229652404785,
                0.7222790122032166
            ],
            "min" : [
                0.00940096378326416,
                0.7884629964828491,
                0.33050698041915894
            ],
            "type" : "VEC3"
        },
        {
            "bufferView" : 26,
            "componentType" : 5126,
            "count" : 72,
            "type" : "VEC2"
        },
        {
            "bufferView" : 27,
            "componentType" : 5126,
            "count" : 72,
            "type" : "VEC3"
        },
        {
            "bufferView" : 28,
            "componentType" : 5123,
            "count" : 72,
            "type" : "SCALAR"
        },
        {
            "bufferView" : 30,
            "componentType" : 5126,
            "count" : 142,
            "max" : [
                3.8536200523376465,
                1.7544069290161133,
                0.7281069755554199
            ],
            "min" : [
                0.08583199977874756,
                0.18827897310256958,
                0.2966749966144562
            ],
            "type" : "VEC3"
        },
        {
            "bufferView" : 31,
            "componentType" : 5126,
            "count" : 142,
            "type" : "VEC2"
        },
        {
            "bufferView" : 32,
            "componentType" : 5126,
            "count" : 142,
            "type" : "VEC3"
        },
        {
            "bufferView" : 33,
            "componentType" : 5123,
            "count" : 180,
            "type" : "SCALAR"
        },
        {
            "bufferView" : 35,
            "componentType" : 5126,
            "count" : 595,
            "max" : [
                3.2558369636535645,
                1.7003428936004639,
                0.6574749946594238
            ],
            "min" : [
                0.2602349519729614,
                0.242343008518219,
                0
            ],
            "type" : "VEC3"
        },
        {
            "bufferView" : 36,
            "componentType" : 5126,
            "count" : 595,
            "type" : "VEC2"
        },
        {
            "bufferView" : 37,
            "componentType" : 5126,
            "count" : 595,
            "type" : "VEC3"
        },
        {
            "bufferView" : 38,
            "componentType" : 5123,
            "count" : 1104,
            "type" : "SCALAR"
        }
    ],
    "bufferViews" : [
        {
            "buffer" : 0,
            "byteLength" : 1920,
            "byteOffset" : 0,
            "target" : 34962
        },
        {
            "buffer" : 0,
            "byteLength" : 1280,
            "byteOffset" : 1920,
            "target" : 34962
        },
        {
            "buffer" : 0,
            "byteLength" : 1920,
            "byteOffset" : 3200,
            "target" : 34962
        },
        {
            "buffer" : 0,
            "byteLength" : 492,
            "byteOffset" : 5120,
            "target" : 34963
        },
        {
            "buffer" : 0,
            "byteLength" : 254884,
            "byteOffset" : 5612
        },
        {
            "buffer" : 0,
            "byteLength" : 19644,
            "byteOffset" : 260496,
            "target" : 34962
        },
        {
            "buffer" : 0,
            "byteLength" : 13096,
            "byteOffset" : 280140,
            "target" : 34962
        },
        {
            "buffer" : 0,
            "byteLength" : 19644,
            "byteOffset" : 293236,
            "target" : 34962
        },
        {
            "buffer" : 0,
            "byteLength" : 8700,
            "byteOffset" : 312880,
            "target" : 34963
        },
        {
            "buffer" : 0,
            "byteLength" : 471453,
            "byteOffset" : 321580
        },
        {
            "buffer" : 0,
            "byteLength" : 3168,
            "byteOffset" : 793036,
            "target" : 34962
        },
        {
            "buffer" : 0,
            "byteLength" : 2112,
            "byteOffset" : 796204,
            "target" : 34962
        },
        {
            "buffer" : 0,
            "byteLength" : 3168,
            "byteOffset" : 798316,
            "target" : 34962
        },
        {
            "buffer" : 0,
            "byteLength" : 1440,
            "byteOffset" : 801484,
            "target" : 34963
        },
        {
            "buffer" : 0,
            "byteLength" : 219737,
            "byteOffset" : 802924
        },
        {
            "buffer" : 0,
            "byteLength" : 2784,
            "byteOffset" : 1022664,
            "target" : 34962
        },
        {
            "buffer" : 0,
            "byteLength" : 1856,
            "byteOffset" : 1025448,
            "target" : 34962
        },
        {
            "buffer" : 0,
            "byteLength" : 2784,
            "byteOffset" : 1027304,
            "target" : 34962
        },
        {
            "buffer" : 0,
            "byteLength" : 504,
            "byteOffset" : 1030088,
            "target" : 34963
        },
        {
            "buffer" : 0,
            "byteLength" : 250777,
            "byteOffset" : 1030592
        },
        {
            "buffer" : 0,
            "byteLength" : 16932,
            "byteOffset" : 1281372,
            "target" : 34962
        },
        {
            "buffer" : 0,
            "byteLength" : 11288,
            "byteOffset" : 1298304,
            "target" : 34962
        },
        {
            "buffer" : 0,
            "byteLength" : 16932,
            "byteOffset" : 1309592,
            "target" : 34962
        },
        {
            "buffer" : 0,
            "byteLength" : 4776,
            "byteOffset" : 1326524,
            "target" : 34963
        },
        {
            "buffer" : 0,
            "byteLength" : 104450,
            "byteOffset" : 1331300
        },
        {
            "buffer" : 0,
            "byteLength" : 864,
            "byteOffset" : 1435752,
            "target" : 34962
        },
        {
            "buffer" : 0,
            "byteLength" : 576,
            "byteOffset" : 1436616,
            "target" : 34962
        },
        {
            "buffer" : 0,
            "byteLength" : 864,
            "byteOffset" : 1437192,
            "target" : 34962
        },
        {
            "buffer" : 0,
            "byteLength" : 144,
            "byteOffset" : 1438056,
            "target" : 34963
        },
        {
            "buffer" : 0,
            "byteLength" : 64267,
            "byteOffset" : 1438200
        },
        {
            "buffer" : 0,
            "byteLength" : 1704,
            "byteOffset" : 1502468,
            "target" : 34962
        },
        {
            "buffer" : 0,
            "byteLength" : 1136,
            "byteOffset" : 1504172,
            "target" : 34962
        },
        {
            "buffer" : 0,
            "byteLength" : 1704,
            "byteOffset" : 1505308,
            "target" : 34962
        },
        {
            "buffer" : 0,
            "byteLength" : 360,
            "byteOffset" : 1507012,
            "target" : 34963
        },
        {
            "buffer" : 0,
            "byteLength" : 236819,
            "byteOffset" : 1507372
        },
        {
            "buffer" : 0,
            "byteLength" : 7140,
            "byteOffset" : 1744192,
            "target" : 34962
        },
        {
            "buffer" : 0,
            "byteLength" : 4760,
            "byteOffset" : 1751332,
            "target" : 34962
        },
        {
            "buffer" : 0,
            "byteLength" : 7140,
            "byteOffset" : 1756092,
            "target" : 34962
        },
        {
            "buffer" : 0,
            "byteLength" : 2208,
            "byteOffset" : 1763232,
            "target" : 34963
        },
        {
            "buffer" : 0,
            "byteLength" : 218285,
            "byteOffset" : 1765440
        }
    ],
    "samplers" : [
        {
            "magFilter" : 9729,
            "minFilter" : 9987
        }
    ],
    "buffers" : [
        {
            "byteLength" : 1983728,
            "uri" : "data:application/octet-stream;base64,"
        }
    ]
}
