{
	"asset":{
		"generator":"Khronos glTF Blender I/O v3.5.30",
		"version":"2.0"
	},
	"extensionsUsed":[
		"KHR_materials_clearcoat"
	],
	"scene":0,
	"scenes":[
		{
			"name":"Scene",
			"nodes":[
				2
			]
		}
	],
	"nodes":[
		{
			"mesh":0,
			"name":"Object_2"
		},
		{
			"children":[
				0
			],
			"name":"trabant.obj.cleaner.materialmerger.gles"
		},
		{
			"children":[
				1
			],
			"name":"Sketchfab_model",
			"rotation":[
				-0.70710688829422,
				0,
				0,
				0.7071066498756409
			],
			"scale":[
				1.3515592813491821,
				1.3515594005584717,
				1.3515594005584717
			]
		}
	],
	"materials":[
		{
			"doubleSided":true,
			"extensions":{
				"KHR_materials_clearcoat":{
					"clearcoatFactor":0.14611871540546417,
					"clearcoatRoughnessFactor":0.03999999910593033
				}
			},
			"name":"material_0",
			"pbrMetallicRoughness":{
				"baseColorTexture":{
					"index":0
				},
				"metallicFactor":0,
				"roughnessFactor":0.6000000238418579
			}
		}
	],
	"meshes":[
		{
			"name":"Object_0.001",
			"primitives":[
				{
					"attributes":{
						"POSITION":0,
						"TEXCOORD_0":1,
						"NORMAL":2
					},
					"indices":3,
					"material":0
				}
			]
		}
	],
	"textures":[
		{
			"sampler":0,
			"source":0
		}
	],
	"images":[
		{
			"bufferView":4,
			"mimeType":"image/png",
			"name":"material_0_baseColor"
		}
	],
	"accessors":[
		{
			"bufferView":0,
			"componentType":5126,
			"count":6948,
			"max":[
				1.0273000001907349,
				2.4925999641418457,
				1.6735999584197998
			],
			"min":[
				-1.0542999505996704,
				-2.3691000938415527,
				-0.2231999933719635
			],
			"type":"VEC3"
		},
		{
			"bufferView":1,
			"componentType":5126,
			"count":6948,
			"type":"VEC2"
		},
		{
			"bufferView":2,
			"componentType":5126,
			"count":6948,
			"type":"VEC3"
		},
		{
			"bufferView":3,
			"componentType":5123,
			"count":15990,
			"type":"SCALAR"
		}
	],
	"bufferViews":[
		{
			"buffer":0,
			"byteLength":83376,
			"byteOffset":0,
			"target":34962
		},
		{
			"buffer":0,
			"byteLength":55584,
			"byteOffset":83376,
			"target":34962
		},
		{
			"buffer":0,
			"byteLength":83376,
			"byteOffset":138960,
			"target":34962
		},
		{
			"buffer":0,
			"byteLength":31980,
			"byteOffset":222336,
			"target":34963
		},
		{
			"buffer":0,
			"byteLength":1436346,
			"byteOffset":254316
		}
	],
	"samplers":[
		{
			"magFilter":9729,
			"minFilter":9987
		}
	],
	"buffers":[
		{
			"byteLength":1690664,
			"uri":"data:application/octet-stream;base64,"
		}
	]
}
