{
    "asset" : {
        "generator" : "Khronos glTF Blender I/O v3.4.50",
        "version" : "2.0"
    },
    "scene" : 0,
    "scenes" : [
        {
            "name" : "Scene",
            "nodes" : [
                34
            ]
        }
    ],
    "nodes" : [
        {
            "name" : "Cachorro_27"
        },
        {
            "name" : "Focinho_0",
            "rotation" : [
                -0.3744548261165619,
                6.926760534042842e-07,
                4.464196479148086e-08,
                0.9272451996803284
            ],
            "translation" : [
                -1.6913055157774526e-13,
                0.5162333250045776,
                -1.1920928955078125e-07
            ]
        },
        {
            "children" : [
                1
            ],
            "name" : "Cabe\ufffd\ufffda_1",
            "rotation" : [
                -0.29453739523887634,
                -2.2783795827763242e-07,
                1.8491938647002826e-07,
                0.9556399583816528
            ],
            "scale" : [
                1,
                0.9999999403953552,
                1
            ],
            "translation" : [
                -5.970278525030404e-14,
                0.7225281000137329,
                3.5762786865234375e-07
            ]
        },
        {
            "name" : "Orelha_L_2",
            "rotation" : [
                -0.9564635157585144,
                0.08704010397195816,
                0.02546241320669651,
                0.2774044871330261
            ],
            "scale" : [
                1,
                1,
                0.9999999403953552
            ],
            "translation" : [
                -0.35332027077674866,
                0.8775612711906433,
                -0.17895112931728363
            ]
        },
        {
            "name" : "Orelha_R_3",
            "rotation" : [
                -0.9561835527420044,
                -0.09005940705537796,
                -0.026338040828704834,
                0.2773240804672241
            ],
            "scale" : [
                0.9999999403953552,
                0.9999999403953552,
                1
            ],
            "translation" : [
                0.3479548692703247,
                0.8775607347488403,
                -0.17895151674747467
            ]
        },
        {
            "children" : [
                2,
                3,
                4
            ],
            "name" : "Pesco\ufffd\ufffdo_4",
            "rotation" : [
                0.33723777532577515,
                -7.03299747328856e-07,
                1.206120003871547e-07,
                0.9414195418357849
            ],
            "scale" : [
                1,
                0.9999999403953552,
                0.9999999403953552
            ],
            "translation" : [
                2.541330861027813e-13,
                0.5805224180221558,
                -5.21540641784668e-08
            ]
        },
        {
            "name" : "Pata_Frente_L_5",
            "rotation" : [
                0.6400067210197449,
                -6.02240152147715e-06,
                2.6622467430570396e-06,
                0.7683693766593933
            ],
            "scale" : [
                1,
                0.9999999403953552,
                0.9999999403953552
            ],
            "translation" : [
                4.2670286859447515e-08,
                0.6172922849655151,
                -1.5673322195652872e-08
            ]
        },
        {
            "children" : [
                6
            ],
            "name" : "Perna_Frente_03_L_6",
            "rotation" : [
                -6.994267209847749e-07,
                -0.9929947853088379,
                0.1181589886546135,
                6.112054506957065e-06
            ],
            "scale" : [
                1,
                1.0000001192092896,
                0.9999998807907104
            ],
            "translation" : [
                2.3514289182458015e-08,
                0.529378354549408,
                -1.9261278794147074e-08
            ]
        },
        {
            "children" : [
                7
            ],
            "name" : "Perna_Frente_02_L_7",
            "rotation" : [
                0.04112134128808975,
                0.004663897678256035,
                0.11259070783853531,
                0.9927792549133301
            ],
            "scale" : [
                0.9999998807907104,
                0.9999999403953552,
                0.9999999403953552
            ],
            "translation" : [
                -1.3760291039943695e-07,
                0.5670167207717896,
                5.63147750654025e-09
            ]
        },
        {
            "children" : [
                8
            ],
            "name" : "Perna_Frente_01_L_8",
            "rotation" : [
                0.06649070978164673,
                -0.5862889885902405,
                0.8022262454032898,
                0.09097947180271149
            ],
            "scale" : [
                1,
                1.0000004768371582,
                1.0000001192092896
            ],
            "translation" : [
                -0.18830473721027374,
                0.37566453218460083,
                -0.3485463857650757
            ]
        },
        {
            "name" : "Pata_Frente_R_9",
            "rotation" : [
                0.6400066018104553,
                5.981016329315025e-06,
                -2.6882382826443063e-06,
                0.7683695554733276
            ],
            "translation" : [
                -7.434870497036172e-09,
                0.6172925233840942,
                -2.6851239454117604e-08
            ]
        },
        {
            "children" : [
                10
            ],
            "name" : "Perna_Frente_03_R_10",
            "rotation" : [
                -6.552096465384238e-07,
                0.9929947853088379,
                -0.1181589737534523,
                6.1120535974623635e-06
            ],
            "scale" : [
                1,
                0.999999463558197,
                1
            ],
            "translation" : [
                5.2655835247605864e-09,
                0.5293781161308289,
                4.7367336719617015e-09
            ]
        },
        {
            "children" : [
                11
            ],
            "name" : "Perna_Frente_02_R_11",
            "rotation" : [
                0.04112127050757408,
                -0.004663849715143442,
                -0.1125907301902771,
                0.9927792549133301
            ],
            "scale" : [
                1,
                1.0000001192092896,
                1
            ],
            "translation" : [
                3.888271749019623e-08,
                0.5670170187950134,
                4.791272090187704e-08
            ]
        },
        {
            "children" : [
                12
            ],
            "name" : "Perna_Frente_01_R_12",
            "rotation" : [
                0.06649163365364075,
                0.5862889289855957,
                -0.802226185798645,
                0.0909801572561264
            ],
            "scale" : [
                0.9999999403953552,
                1,
                1
            ],
            "translation" : [
                0.18830546736717224,
                0.375664621591568,
                -0.34854573011398315
            ]
        },
        {
            "children" : [
                5,
                9,
                13
            ],
            "name" : "Coluna_03_13",
            "rotation" : [
                0.17874976992607117,
                -4.541503585642204e-06,
                1.0225464848190313e-06,
                0.9838945865631104
            ],
            "translation" : [
                5.16108098098933e-13,
                0.5379287004470825,
                1.695007085800171e-07
            ]
        },
        {
            "children" : [
                14
            ],
            "name" : "Coluna_02_14",
            "rotation" : [
                3.6421126878849464e-06,
                -0.6875417828559875,
                -0.7261449098587036,
                3.658207560874871e-06
            ],
            "scale" : [
                1,
                0.9999997019767761,
                0.9999998807907104
            ],
            "translation" : [
                4.426512528374858e-14,
                6.891787052154541e-08,
                -4.470348358154297e-08
            ]
        },
        {
            "name" : "Rabo_02_15",
            "rotation" : [
                -0.0008305165683850646,
                8.946008165366948e-07,
                6.43967101865428e-10,
                0.9999996423721313
            ],
            "scale" : [
                1,
                0.9999999403953552,
                1
            ],
            "translation" : [
                -6.605917527401084e-13,
                0.5946872234344482,
                -4.172325134277344e-07
            ]
        },
        {
            "children" : [
                16
            ],
            "name" : "Rabo_01_16",
            "rotation" : [
                0.41959908604621887,
                -2.1685518447611685e-07,
                -6.004839860906941e-07,
                0.907709538936615
            ],
            "translation" : [
                1.9770052972489793e-07,
                0.871390700340271,
                0.1658301204442978
            ]
        },
        {
            "name" : "Pata_Tras_L_17",
            "rotation" : [
                0.5680649876594543,
                3.831998583336826e-06,
                2.7227949885855196e-06,
                0.8229837417602539
            ],
            "scale" : [
                1,
                0.9999999403953552,
                1
            ],
            "translation" : [
                -4.631498740081952e-08,
                0.45776116847991943,
                1.5104799899745558e-07
            ]
        },
        {
            "children" : [
                18
            ],
            "name" : "Perna_Tras_03_L_18",
            "rotation" : [
                4.057225222453553e-09,
                -0.9306325316429138,
                0.36595505475997925,
                7.0260796292132e-08
            ],
            "scale" : [
                1,
                0.9999998211860657,
                0.9999998807907104
            ],
            "translation" : [
                1.7125001861018063e-08,
                0.5057805776596069,
                2.4561654043964154e-08
            ]
        },
        {
            "children" : [
                19
            ],
            "name" : "Perna_Tras_02_L_19",
            "rotation" : [
                0.270755410194397,
                0.03151533007621765,
                0.07422026246786118,
                0.9592651724815369
            ],
            "scale" : [
                1,
                0.9999998807907104,
                0.9999999403953552
            ],
            "translation" : [
                8.475035429000854e-08,
                0.7850795388221741,
                -8.847564458847046e-09
            ]
        },
        {
            "children" : [
                20
            ],
            "name" : "Perna_Tras_01_L_20",
            "rotation" : [
                -0.5768977403640747,
                -0.05458925664424896,
                -0.059344638139009476,
                0.8128266930580139
            ],
            "scale" : [
                1,
                0.9999999403953552,
                0.9999999403953552
            ],
            "translation" : [
                0.1893010437488556,
                0.6085605621337891,
                -0.1638021618127823
            ]
        },
        {
            "name" : "Pata_Tras_R_21",
            "rotation" : [
                0.5680651664733887,
                -3.811432634392986e-06,
                -2.6974248612532392e-06,
                0.8229836225509644
            ],
            "translation" : [
                1.4807521431237092e-08,
                0.4577611982822418,
                -2.2386683440345223e-07
            ]
        },
        {
            "children" : [
                22
            ],
            "name" : "Perna_Tras_03_R_22",
            "rotation" : [
                -1.5883189874443815e-08,
                0.9306325912475586,
                -0.3659548759460449,
                7.026081760841407e-08
            ],
            "translation" : [
                8.821631425348642e-09,
                0.5057809352874756,
                9.93642075286516e-08
            ]
        },
        {
            "children" : [
                23
            ],
            "name" : "Perna_Tras_02_R_23",
            "rotation" : [
                0.2707553505897522,
                -0.03151533380150795,
                -0.07422024011611938,
                0.9592652320861816
            ],
            "scale" : [
                0.9999999403953552,
                0.9999999403953552,
                0.9999999403953552
            ],
            "translation" : [
                6.984919309616089e-08,
                0.7850797772407532,
                1.7508864402770996e-07
            ]
        },
        {
            "children" : [
                24
            ],
            "name" : "Perna_Tras_01_R_24",
            "rotation" : [
                -0.5768976807594299,
                0.05459026247262955,
                0.0593453086912632,
                0.8128266334533691
            ],
            "scale" : [
                0.9999999403953552,
                1,
                1
            ],
            "translation" : [
                -0.1893015056848526,
                0.6085603833198547,
                -0.1638018786907196
            ]
        },
        {
            "children" : [
                17,
                21,
                25
            ],
            "name" : "Coluna_01_25",
            "rotation" : [
                -0.7484984397888184,
                -2.941542618373205e-07,
                5.60329908694257e-07,
                0.6631365418434143
            ],
            "translation" : [
                5.4584866493326625e-14,
                -1.73225998878479e-07,
                6.705522537231445e-08
            ]
        },
        {
            "children" : [
                15,
                26
            ],
            "name" : "Master_26",
            "rotation" : [
                -0.013509820215404034,
                -1.6007257386263518e-07,
                1.958081252695365e-09,
                0.9999087452888489
            ],
            "scale" : [
                1,
                0.9999999403953552,
                1
            ],
            "translation" : [
                1.1817384404366749e-08,
                1.9404016733169556,
                -0.7800484299659729
            ]
        },
        {
            "children" : [
                27
            ],
            "name" : "GLTF_created_0_rootJoint",
            "rotation" : [
                6.339203650895797e-08,
                7.574776361707336e-09,
                5.088690720462098e-16,
                1
            ]
        },
        {
            "mesh" : 0,
            "name" : "Object_7",
            "skin" : 0
        },
        {
            "children" : [
                0,
                29,
                28
            ],
            "name" : "GLTF_created_0"
        },
        {
            "children" : [
                30
            ],
            "name" : "Rig - Cachorro_28"
        },
        {
            "children" : [
                31
            ],
            "name" : "GLTF_SceneRootNode",
            "rotation" : [
                0.70710688829422,
                0,
                0,
                0.7071066498756409
            ]
        },
        {
            "children" : [
                32
            ],
            "name" : "root"
        },
        {
            "children" : [
                33
            ],
            "name" : "Sketchfab_model",
            "rotation" : [
                -0.70710688829422,
                0,
                0,
                0.7071066498756409
            ]
        }
    ],
    "materials" : [
        {
            "doubleSided" : true,
            "name" : "Scene_-_Root",
            "pbrMetallicRoughness" : {
                "baseColorTexture" : {
                    "index" : 0
                },
                "metallicFactor" : 0,
                "roughnessFactor" : 0.5
            }
        }
    ],
    "meshes" : [
        {
            "name" : "Object_0",
            "primitives" : [
                {
                    "attributes" : {
                        "POSITION" : 0,
                        "TEXCOORD_0" : 1,
                        "NORMAL" : 2,
                        "JOINTS_0" : 3,
                        "WEIGHTS_0" : 4
                    },
                    "indices" : 5,
                    "material" : 0
                }
            ]
        }
    ],
    "textures" : [
        {
            "sampler" : 0,
            "source" : 0
        }
    ],
    "images" : [
        {
            "bufferView" : 6,
            "mimeType" : "image/png",
            "name" : "Scene_-_Root_diffuse"
        }
    ],
    "skins" : [
        {
            "inverseBindMatrices" : 6,
            "joints" : [
                28,
                27,
                15,
                14,
                5,
                2,
                1,
                3,
                4,
                9,
                8,
                7,
                6,
                13,
                12,
                11,
                10,
                26,
                17,
                16,
                21,
                20,
                19,
                18,
                25,
                24,
                23,
                22
            ],
            "name" : "GLTF_created_0"
        }
    ],
    "accessors" : [
        {
            "bufferView" : 0,
            "componentType" : 5126,
            "count" : 3274,
            "max" : [
                0.5722432732582092,
                3.1404194831848145,
                1.844399094581604
            ],
            "min" : [
                -0.5722432732582092,
                -0.0041448744013905525,
                -2.6037542819976807
            ],
            "type" : "VEC3"
        },
        {
            "bufferView" : 1,
            "componentType" : 5126,
            "count" : 3274,
            "type" : "VEC2"
        },
        {
            "bufferView" : 2,
            "componentType" : 5126,
            "count" : 3274,
            "type" : "VEC3"
        },
        {
            "bufferView" : 3,
            "componentType" : 5121,
            "count" : 3274,
            "type" : "VEC4"
        },
        {
            "bufferView" : 4,
            "componentType" : 5126,
            "count" : 3274,
            "type" : "VEC4"
        },
        {
            "bufferView" : 5,
            "componentType" : 5123,
            "count" : 4512,
            "type" : "SCALAR"
        },
        {
            "bufferView" : 7,
            "componentType" : 5126,
            "count" : 28,
            "type" : "MAT4"
        }
    ],
    "bufferViews" : [
        {
            "buffer" : 0,
            "byteLength" : 39288,
            "byteOffset" : 0,
            "target" : 34962
        },
        {
            "buffer" : 0,
            "byteLength" : 26192,
            "byteOffset" : 39288,
            "target" : 34962
        },
        {
            "buffer" : 0,
            "byteLength" : 39288,
            "byteOffset" : 65480,
            "target" : 34962
        },
        {
            "buffer" : 0,
            "byteLength" : 13096,
            "byteOffset" : 104768,
            "target" : 34962
        },
        {
            "buffer" : 0,
            "byteLength" : 52384,
            "byteOffset" : 117864,
            "target" : 34962
        },
        {
            "buffer" : 0,
            "byteLength" : 9024,
            "byteOffset" : 170248,
            "target" : 34963
        },
        {
            "buffer" : 0,
            "byteLength" : 546527,
            "byteOffset" : 179272
        },
        {
            "buffer" : 0,
            "byteLength" : 1792,
            "byteOffset" : 725800
        }
    ],
    "samplers" : [
        {
            "magFilter" : 9729,
            "minFilter" : 9987
        }
    ],
    "buffers" : [
        {
            "byteLength" : 727592,
            "uri" : "data:application/octet-stream;base64,"
        }
    ]
}
