{
    "asset" : {
        "generator" : "Khronos glTF Blender I/O v3.4.50",
        "version" : "2.0"
    },
    "scene" : 0,
    "scenes" : [
        {
            "name" : "Scene",
            "nodes" : [
                0
            ]
        }
    ],
    "nodes" : [
        {
            "mesh" : 0,
            "name" : "model_5",
            "rotation" : [
                0.70710688829422,
                0,
                0,
                0.7071066498756409
            ],
            "scale" : [
                0.020278647541999817,
                0.020278647541999817,
                0.020278647541999817
            ]
        }
    ],
    "materials" : [
        {
            "doubleSided" : true,
            "name" : "Material.001",
            "pbrMetallicRoughness" : {
                "baseColorTexture" : {
                    "index" : 0
                },
                "metallicFactor" : 0,
                "roughnessFactor" : 0.5
            }
        },
        {
            "doubleSided" : true,
            "name" : "Material.002",
            "pbrMetallicRoughness" : {
                "baseColorTexture" : {
                    "index" : 1
                },
                "metallicFactor" : 0,
                "roughnessFactor" : 0.5
            }
        },
        {
            "doubleSided" : true,
            "name" : "Material.005",
            "pbrMetallicRoughness" : {
                "baseColorTexture" : {
                    "index" : 2
                },
                "metallicFactor" : 0,
                "roughnessFactor" : 0.5
            }
        },
        {
            "doubleSided" : true,
            "name" : "Material.004",
            "pbrMetallicRoughness" : {
                "baseColorTexture" : {
                    "index" : 3
                },
                "metallicFactor" : 0,
                "roughnessFactor" : 0.5
            }
        },
        {
            "doubleSided" : true,
            "name" : "Material.006",
            "pbrMetallicRoughness" : {
                "metallicFactor" : 0,
                "roughnessFactor" : 0.5
            }
        },
        {
            "doubleSided" : true,
            "name" : "Material.007",
            "pbrMetallicRoughness" : {
                "metallicFactor" : 0,
                "roughnessFactor" : 0.5
            }
        }
    ],
    "meshes" : [
        {
            "name" : "model_5",
            "primitives" : [
                {
                    "attributes" : {
                        "POSITION" : 0,
                        "TEXCOORD_0" : 1,
                        "NORMAL" : 2
                    },
                    "indices" : 3,
                    "material" : 0
                },
                {
                    "attributes" : {
                        "POSITION" : 4,
                        "TEXCOORD_0" : 5,
                        "NORMAL" : 6
                    },
                    "indices" : 7,
                    "material" : 1
                },
                {
                    "attributes" : {
                        "POSITION" : 8,
                        "TEXCOORD_0" : 9,
                        "NORMAL" : 10
                    },
                    "indices" : 11,
                    "material" : 2
                },
                {
                    "attributes" : {
                        "POSITION" : 12,
                        "TEXCOORD_0" : 13,
                        "NORMAL" : 14
                    },
                    "indices" : 15,
                    "material" : 3
                },
                {
                    "attributes" : {
                        "POSITION" : 16,
                        "TEXCOORD_0" : 17,
                        "NORMAL" : 18
                    },
                    "indices" : 19,
                    "material" : 4
                },
                {
                    "attributes" : {
                        "POSITION" : 20,
                        "TEXCOORD_0" : 21,
                        "NORMAL" : 22
                    },
                    "indices" : 23,
                    "material" : 5
                }
            ]
        }
    ],
    "textures" : [
        {
            "sampler" : 0,
            "source" : 0
        },
        {
            "sampler" : 0,
            "source" : 1
        },
        {
            "sampler" : 0,
            "source" : 2
        },
        {
            "sampler" : 0,
            "source" : 1
        }
    ],
    "images" : [
        {
            "bufferView" : 4,
            "mimeType" : "image/png",
            "name" : "gram01"
        },
        {
            "bufferView" : 9,
            "mimeType" : "image/png",
            "name" : "gram02"
        },
        {
            "bufferView" : 14,
            "mimeType" : "image/png",
            "name" : "footballstadium_color"
        }
    ],
    "accessors" : [
        {
            "bufferView" : 0,
            "componentType" : 5126,
            "count" : 360,
            "max" : [
                1311.09033203125,
                866.6332397460938,
                -572.1359252929688
            ],
            "min" : [
                -1289.5673828125,
                -1000.5478515625,
                -688.7408447265625
            ],
            "type" : "VEC3"
        },
        {
            "bufferView" : 1,
            "componentType" : 5126,
            "count" : 360,
            "type" : "VEC2"
        },
        {
            "bufferView" : 2,
            "componentType" : 5126,
            "count" : 360,
            "type" : "VEC3"
        },
        {
            "bufferView" : 3,
            "componentType" : 5123,
            "count" : 360,
            "type" : "SCALAR"
        },
        {
            "bufferView" : 5,
            "componentType" : 5126,
            "count" : 517,
            "max" : [
                910.2623901367188,
                482.53717041015625,
                -27.425891876220703
            ],
            "min" : [
                -878.5572509765625,
                -625.2665405273438,
                -27.642072677612305
            ],
            "type" : "VEC3"
        },
        {
            "bufferView" : 6,
            "componentType" : 5126,
            "count" : 517,
            "type" : "VEC2"
        },
        {
            "bufferView" : 7,
            "componentType" : 5126,
            "count" : 517,
            "type" : "VEC3"
        },
        {
            "bufferView" : 8,
            "componentType" : 5123,
            "count" : 519,
            "type" : "SCALAR"
        },
        {
            "bufferView" : 10,
            "componentType" : 5126,
            "count" : 47710,
            "max" : [
                2206.48486328125,
                1680.2210693359375,
                23.116727828979492
            ],
            "min" : [
                -2176.28662109375,
                -1822.01171875,
                -731.7108764648438
            ],
            "type" : "VEC3"
        },
        {
            "bufferView" : 11,
            "componentType" : 5126,
            "count" : 47710,
            "type" : "VEC2"
        },
        {
            "bufferView" : 12,
            "componentType" : 5126,
            "count" : 47710,
            "type" : "VEC3"
        },
        {
            "bufferView" : 13,
            "componentType" : 5123,
            "count" : 49551,
            "type" : "SCALAR"
        },
        {
            "bufferView" : 15,
            "componentType" : 5126,
            "count" : 24,
            "max" : [
                1089.9044189453125,
                600.4908447265625,
                -27.393024444580078
            ],
            "min" : [
                -1059.6827392578125,
                -742.2793579101562,
                -27.39324378967285
            ],
            "type" : "VEC3"
        },
        {
            "bufferView" : 16,
            "componentType" : 5126,
            "count" : 24,
            "type" : "VEC2"
        },
        {
            "bufferView" : 17,
            "componentType" : 5126,
            "count" : 24,
            "type" : "VEC3"
        },
        {
            "bufferView" : 18,
            "componentType" : 5123,
            "count" : 24,
            "type" : "SCALAR"
        },
        {
            "bufferView" : 19,
            "componentType" : 5126,
            "count" : 9760,
            "max" : [
                1331.550537109375,
                877.8665161132812,
                -19.751638412475586
            ],
            "min" : [
                -1308.882568359375,
                -1014.1148071289062,
                -692.0051879882812
            ],
            "type" : "VEC3"
        },
        {
            "bufferView" : 20,
            "componentType" : 5126,
            "count" : 9760,
            "type" : "VEC2"
        },
        {
            "bufferView" : 21,
            "componentType" : 5126,
            "count" : 9760,
            "type" : "VEC3"
        },
        {
            "bufferView" : 22,
            "componentType" : 5123,
            "count" : 9912,
            "type" : "SCALAR"
        },
        {
            "bufferView" : 23,
            "componentType" : 5126,
            "count" : 414,
            "max" : [
                1342.4229736328125,
                886.6077880859375,
                -582.0517578125
            ],
            "min" : [
                -1321.4183349609375,
                -1027.4039306640625,
                -683.033935546875
            ],
            "type" : "VEC3"
        },
        {
            "bufferView" : 24,
            "componentType" : 5126,
            "count" : 414,
            "type" : "VEC2"
        },
        {
            "bufferView" : 25,
            "componentType" : 5126,
            "count" : 414,
            "type" : "VEC3"
        },
        {
            "bufferView" : 26,
            "componentType" : 5123,
            "count" : 432,
            "type" : "SCALAR"
        }
    ],
    "bufferViews" : [
        {
            "buffer" : 0,
            "byteLength" : 4320,
            "byteOffset" : 0,
            "target" : 34962
        },
        {
            "buffer" : 0,
            "byteLength" : 2880,
            "byteOffset" : 4320,
            "target" : 34962
        },
        {
            "buffer" : 0,
            "byteLength" : 4320,
            "byteOffset" : 7200,
            "target" : 34962
        },
        {
            "buffer" : 0,
            "byteLength" : 720,
            "byteOffset" : 11520,
            "target" : 34963
        },
        {
            "buffer" : 0,
            "byteLength" : 154370,
            "byteOffset" : 12240
        },
        {
            "buffer" : 0,
            "byteLength" : 6204,
            "byteOffset" : 166612,
            "target" : 34962
        },
        {
            "buffer" : 0,
            "byteLength" : 4136,
            "byteOffset" : 172816,
            "target" : 34962
        },
        {
            "buffer" : 0,
            "byteLength" : 6204,
            "byteOffset" : 176952,
            "target" : 34962
        },
        {
            "buffer" : 0,
            "byteLength" : 1038,
            "byteOffset" : 183156,
            "target" : 34963
        },
        {
            "buffer" : 0,
            "byteLength" : 146053,
            "byteOffset" : 184196
        },
        {
            "buffer" : 0,
            "byteLength" : 572520,
            "byteOffset" : 330252,
            "target" : 34962
        },
        {
            "buffer" : 0,
            "byteLength" : 381680,
            "byteOffset" : 902772,
            "target" : 34962
        },
        {
            "buffer" : 0,
            "byteLength" : 572520,
            "byteOffset" : 1284452,
            "target" : 34962
        },
        {
            "buffer" : 0,
            "byteLength" : 99102,
            "byteOffset" : 1856972,
            "target" : 34963
        },
        {
            "buffer" : 0,
            "byteLength" : 7920,
            "byteOffset" : 1956076
        },
        {
            "buffer" : 0,
            "byteLength" : 288,
            "byteOffset" : 1963996,
            "target" : 34962
        },
        {
            "buffer" : 0,
            "byteLength" : 192,
            "byteOffset" : 1964284,
            "target" : 34962
        },
        {
            "buffer" : 0,
            "byteLength" : 288,
            "byteOffset" : 1964476,
            "target" : 34962
        },
        {
            "buffer" : 0,
            "byteLength" : 48,
            "byteOffset" : 1964764,
            "target" : 34963
        },
        {
            "buffer" : 0,
            "byteLength" : 117120,
            "byteOffset" : 1964812,
            "target" : 34962
        },
        {
            "buffer" : 0,
            "byteLength" : 78080,
            "byteOffset" : 2081932,
            "target" : 34962
        },
        {
            "buffer" : 0,
            "byteLength" : 117120,
            "byteOffset" : 2160012,
            "target" : 34962
        },
        {
            "buffer" : 0,
            "byteLength" : 19824,
            "byteOffset" : 2277132,
            "target" : 34963
        },
        {
            "buffer" : 0,
            "byteLength" : 4968,
            "byteOffset" : 2296956,
            "target" : 34962
        },
        {
            "buffer" : 0,
            "byteLength" : 3312,
            "byteOffset" : 2301924,
            "target" : 34962
        },
        {
            "buffer" : 0,
            "byteLength" : 4968,
            "byteOffset" : 2305236,
            "target" : 34962
        },
        {
            "buffer" : 0,
            "byteLength" : 864,
            "byteOffset" : 2310204,
            "target" : 34963
        }
    ],
    "samplers" : [
        {
            "magFilter" : 9729,
            "minFilter" : 9987
        }
    ],
    "buffers" : [
        {
            "byteLength" : 2311068,
            "uri" : "data:application/octet-stream;base64,"
        }
    ]
}
